<svg xmlns="http://www.w3.org/2000/svg" id="svg5" width="256" height="256" viewBox="0 0 67.733 67.733"><defs id="defs2"><path id="rect30950" d="M0 0h512v256H0Z"/><path id="rect26996" d="M63.493 204.518h87.309v105.514H63.493Z"/><path id="rect2590" d="M0 0h447.77v235.732H0Z"/><path id="rect2590-3" d="M0 0h256v256H0Z"/><path id="rect2590-7" d="M0 0h256v256H0Z"/><path id="rect30950-9" d="M0 0h512v256H0Z"/><path id="rect30950-91" d="M0 0h512v256H0Z"/><filter id="filter2786" width="1.151" height="1.169" x="-.075" y="-.076" style="color-interpolation-filters:srgb"><feFlood id="feFlood2776" flood-color="#000" flood-opacity="1" result="flood"/><feComposite id="feComposite2778" in="flood" in2="SourceGraphic" operator="in" result="composite1"/><feGaussianBlur id="feGaussianBlur2780" in="composite1" result="blur" stdDeviation="1"/><feOffset id="feOffset2782" dx="0" dy=".5" result="offset"/><feComposite id="feComposite2784" in="SourceGraphic" in2="offset" operator="over" result="composite2"/></filter></defs><g id="layer1" transform="translate(-60.421 57.676)"><rect id="rect948" width="63.5" height="63.5" x="62.538" y="-55.559" ry="7.937" style="fill:#1a1a1a;stroke-width:1px;paint-order:markers stroke fill"/><text xml:space="preserve" id="text47760" x="-20.952" y="-23.455" style="font-variant:normal;-inkscape-font-specification:&quot;Roboto Slab Bold&quot;;baseline-shift:baseline;fill:#fff;fill-opacity:1;stroke:none;stroke-width:.264583px;font-family:Roboto Slab;font-size:41.275px;font-style:normal;font-weight:700;font-stretch:100%;line-height:1.25"/><g id="g46490-1" style="stroke-width:.814348px;filter:url(#filter2786)" transform="translate(114.777 -28.799)scale(1.22797)"><g id="text30948-7-1" aria-label="ll" style="-inkscape-font-specification:&quot;Roboto Slab Bold&quot;;white-space:pre;shape-inside:url(#rect30950-91);fill:#fff;stroke-width:.814348px;font-family:Roboto Slab;font-size:156px;font-weight:700;line-height:1.25" transform="translate(-29.845 -18.17)scale(.26458)"><path id="path46654-5" d="M3.58 143.445v-13.33l10.74-2.285V40.309L2.437 38.022V24.617h34.125V127.83l10.74 2.285v13.33Z" style="stroke-width:.814348px"/><path id="path46656-9" d="M53.32 143.445v-13.33l10.74-2.285V40.309l-11.882-2.286V24.617h34.125V127.83l10.74 2.285v13.33Z" style="stroke-width:.814348px"/></g><g id="text30948-0-7" aria-label="|" style="-inkscape-font-specification:&quot;Roboto Slab Bold&quot;;white-space:pre;shape-inside:url(#rect30950-9);fill:#fff;stroke-width:.814348px;font-family:Roboto Slab;font-size:156px;font-weight:700;line-height:1.25" transform="rotate(60 12.87 -3.248)scale(.26458)"><path id="path46659-7" d="M10.055 164.012V32.539h13.33v131.473Z" style="stroke-width:.814348px"/></g></g></g></svg>