<?xml version="1.0" standalone="no"?>
<!DOCTYPE svg PUBLIC "-//W3C//DTD SVG 20010904//EN"
 "http://www.w3.org/TR/2001/REC-SVG-20010904/DTD/svg10.dtd">
<svg version="1.0" xmlns="http://www.w3.org/2000/svg"
 width="1600.000000pt" height="1600.000000pt" viewBox="0 0 1600.000000 1600.000000"
 preserveAspectRatio="xMidYMid meet">
<metadata>
Created by potrace 1.11, written by Peter Selinger 2001-2013
</metadata>
<g transform="translate(0.000000,1600.000000) scale(0.100000,-0.100000)"
fill="#000000" stroke="none">
<path d="M0 8000 l0 -8000 8000 0 8000 0 0 8000 0 8000 -8000 0 -8000 0 0
-8000z m12270 3870 l0 -1240 -710 0 c-670 0 -710 1 -710 18 0 9 -23 264 -50
567 -28 302 -50 550 -50 552 0 2 -436 3 -970 3 l-970 0 0 -3793 0 -3793 543
-93 c298 -50 550 -94 560 -97 16 -5 17 -40 17 -560 l0 -554 -1930 0 -1930 0 2
558 3 557 553 94 552 95 0 3793 0 3793 -969 0 -970 0 -5 -42 c-4 -24 -24 -266
-46 -538 -23 -272 -43 -510 -46 -527 l-5 -33 -709 0 -710 0 0 1240 0 1240
4275 0 4275 0 0 -1240z"/>
</g>
</svg>
