<svg width="256" height="256" viewBox="0 0 67.73 67.73" xmlns="http://www.w3.org/2000/svg"><defs><path id="a" d="M63.49 204.52h87.31v105.51H63.49z"/><path id="d" d="M0 0h512v256H0z"/><path id="c" d="M0 0h512v256H0z"/><filter style="color-interpolation-filters:sRGB" id="b" x="-.08" y="-.08" width="1.15" height="1.17"><feFlood flood-opacity="1" flood-color="#000" result="flood"/><feComposite in="flood" in2="SourceGraphic" operator="in" result="composite1"/><feGaussianBlur in="composite1" stdDeviation="1" result="blur"/><feOffset dy=".5" result="offset"/><feComposite in="SourceGraphic" in2="offset" result="composite2"/></filter></defs><g transform="translate(-60.42 57.68)"><rect style="fill:#1a1a1a;stroke-width:1;paint-order:markers stroke fill" width="63.5" height="63.5" x="62.54" y="-55.56" ry="7.94"/><text xml:space="preserve" style="font-style:normal;font-variant:normal;font-weight:700;font-stretch:normal;font-size:41.275px;line-height:1.25;font-family:&quot;Roboto Slab&quot;;-inkscape-font-specification:&quot;Roboto Slab Bold&quot;;baseline-shift:baseline;fill:#fff;fill-opacity:1;stroke:none;stroke-width:.264583" x="-20.95" y="-23.46"/><g transform="matrix(1.22797 0 0 1.22797 114.78 -28.8)" style="stroke-width:.814348;filter:url(#b)"><g aria-label="ll" transform="matrix(.26458 0 0 .26458 -29.85 -18.17)" style="font-weight:700;font-size:156px;line-height:1.25;font-family:&quot;Roboto Slab&quot;;-inkscape-font-specification:&quot;Roboto Slab Bold&quot;;white-space:pre;shape-inside:url(#c);fill:#fff;stroke-width:.814348"><path d="M3.58 143.45v-13.33l10.74-2.29V40.31L2.44 38.02v-13.4h34.12v103.21l10.74 2.29v13.33zM53.32 143.45v-13.33l10.74-2.29V40.31l-11.88-2.29v-13.4H86.3v103.21l10.74 2.29v13.33z" style="stroke-width:.814348"/></g><g style="font-weight:700;font-size:156px;line-height:1.25;font-family:&quot;Roboto Slab&quot;;-inkscape-font-specification:&quot;Roboto Slab Bold&quot;;white-space:pre;shape-inside:url(#d);fill:#fff;stroke-width:.814348"><path d="M10.05 164.01V32.54h13.33V164Z" style="stroke-width:.814348" aria-label="|" transform="scale(.26458) rotate(60 48.64 -12.28)"/></g></g></g></svg>