<svg width="256" height="256" viewBox="0 0 67.73 67.73" xmlns="http://www.w3.org/2000/svg"><defs><path id="c" d="M0 0h512v256H0z"/><path id="b" d="M0 0h512v256H0z"/><filter style="color-interpolation-filters:sRGB" id="a" x="-.08" y="-.08" width="1.15" height="1.17"><feFlood flood-opacity="1" flood-color="#000" result="flood"/><feComposite in="flood" in2="SourceGraphic" operator="in" result="composite1"/><feGaussianBlur in="composite1" stdDeviation="1" result="blur"/><feOffset dy=".5" result="offset"/><feComposite in="SourceGraphic" in2="offset" result="composite2"/></filter></defs><g transform="translate(-60.42 57.68)"><rect style="fill:#1a1a1a;stroke-width:1;paint-order:markers stroke fill" width="67.74" height="67.74" x="60.42" y="-57.68" ry="0"/><g transform="translate(114.78 -28.8) scale(1.22797)" style="stroke-width:.814348;filter:url(#a)"><g style="font-weight:700;font-size:156px;line-height:1.25;font-family:&quot;Roboto Slab&quot;;-inkscape-font-specification:&quot;Roboto Slab Bold&quot;;white-space:pre;shape-inside:url(#b);fill:#fff;stroke-width:.814348"><path d="M3.58 143.45v-13.33l10.74-2.29V40.31L2.44 38.02v-13.4h34.12v103.21l10.74 2.29v13.33zm49.74 0v-13.33l10.74-2.29V40.31l-11.88-2.29v-13.4H86.3v103.21l10.74 2.29v13.33z" style="stroke-width:.814348" aria-label="ll" transform="translate(-29.85 -18.17) scale(.26458)"/></g><g style="font-weight:700;font-size:156px;line-height:1.25;font-family:&quot;Roboto Slab&quot;;-inkscape-font-specification:&quot;Roboto Slab Bold&quot;;white-space:pre;shape-inside:url(#c);fill:#fff;stroke-width:.814348"><path d="M10.05 164.01V32.54h13.33V164Z" style="stroke-width:.814348" aria-label="|" transform="rotate(60 12.87 -3.25) scale(.26458)"/></g></g></g></svg>