<svg width="379.75" height="152.12" viewBox="0 0 100.47 40.25" xmlns="http://www.w3.org/2000/svg" fill="#fff" style="fill:var(--primary,#fff);stroke:none;stroke-width:0"><defs><path id="b" d="M0 0h512v256H0z"/><path id="a" d="M63.49 204.52h87.31v105.51H63.49z"/><path id="c" d="M0 0h512v256H0z"/><path id="d" d="M0 0h512v256H0z"/></defs><g transform="matrix(.26458 0 0 .26458 -.9 -6.51)" style="font-weight:700;font-size:156px;line-height:1.25;font-family:&quot;Roboto Slab&quot;;-inkscape-font-specification:&quot;Roboto Slab Bold&quot;;white-space:pre;shape-inside:url(#b)"><path d="M29.78 143.45v-13.33l11.89-2.29V49.68H21.48l-1.22 13.25H3.43v-30.4h98.95v30.4H85.45l-1.21-13.25H63.9v78.15l11.96 2.29v13.33zM131.87 145.04q-12.26 0-19.5-6.55-7.24-6.62-7.24-17.97 0-11.66 9.45-18.9 9.45-7.3 27.65-7.3h10.9v-6.1q0-5.94-3.51-9.6-3.43-3.73-10.36-3.73-3.58 0-6.4.91-2.82.84-5.18 2.44l-1.75 10.9h-16l-.3-21.41q6.47-3.66 14.01-5.94 7.55-2.29 16.84-2.29 16.15 0 25.52 7.54 9.36 7.47 9.36 21.4v37.33q.08 1.6.31 3.13l8.6 1.22v13.33H156.7q-.84-2.14-1.67-4.58-.84-2.43-1.22-4.87-3.96 5.03-9.37 8.07-5.33 2.97-12.57 2.97zm5.94-16.45q4.65 0 8.84-2.05 4.19-2.14 6.47-5.57v-13.02h-10.97q-7.3 0-11.12 3.35-3.73 3.35-3.73 8.07 0 4.42 2.74 6.86 2.82 2.36 7.77 2.36zM190.98 143.45v-13.33l10.74-2.29V40.31l-11.88-2.29v-13.4h34.12v103.21l10.74 2.29v13.33zM240.72 143.45v-13.33l10.74-2.29V40.31l-11.88-2.29v-13.4h34.12v103.21l10.74 2.29v13.33zM314.24 176.73q-2.9 0-6.17-.53-3.2-.46-6.1-1.3l2.52-16.3q1.45.3 3.2.46 1.75.15 3.05.15 4.8 0 8.3-2.51 3.5-2.51 5.1-7.24l1.83-5.1-27.57-68.48-10.14-1.45v-13.4H332v13.4l-10.06 1.53 12.95 36.33 1.6 4.5h.46l15.3-40.99-9.82-1.37v-13.4h40.75v13.4l-9.29 1.3-31.46 79.98q-2.28 5.71-5.86 10.43-3.5 4.8-9 7.7-5.4 2.9-13.32 2.9z"/></g><path d="M10.05 164.01V32.54h13.33V164Z" transform="scale(.26458) rotate(60 158.87 266.77)" style="font-weight:700;font-size:156px;line-height:1.25;font-family:&quot;Roboto Slab&quot;;-inkscape-font-specification:&quot;Roboto Slab Bold&quot;;white-space:pre;shape-inside:url(#c)"/><text xml:space="preserve" style="font-style:normal;font-variant:normal;font-weight:700;font-stretch:normal;font-size:41.275px;line-height:1.25;font-family:&quot;Roboto Slab&quot;;-inkscape-font-specification:&quot;Roboto Slab Bold&quot;;baseline-shift:baseline;fill-opacity:1;" x="-20.95" y="-23.46" transform="translate(-17.5 -16.25)"/><g transform="matrix(.26458 0 0 .26458 45.7 -80.44)" style="font-weight:700;font-size:156px;line-height:1.25;font-family:&quot;Roboto Slab&quot;;-inkscape-font-specification:&quot;Roboto Slab Bold&quot;;white-space:pre;shape-inside:url(#d)"><path d="M3.58 143.45v-13.33l10.74-2.29V40.31L2.44 38.02v-13.4h34.12v103.21l10.74 2.29v13.33zM53.32 143.45v-13.33l10.74-2.29V40.31l-11.88-2.29v-13.4H86.3v103.21l10.74 2.29v13.33z"/></g><path d="M10.05 164.01V32.54h13.33V164Z" transform="scale(.26458) rotate(60 395.24 117.35)" style="font-weight:700;font-size:156px;line-height:1.25;font-family:&quot;Roboto Slab&quot;;-inkscape-font-specification:&quot;Roboto Slab Bold&quot;;white-space:pre;shape-inside:url(#c)"/></svg>
